<svg width="32" height="32" viewBox="0 0 32 32" fill="none" xmlns="http://www.w3.org/2000/svg">
<rect x="2" y="1.5" width="28" height="29" rx="2" fill="white"/>
<path d="M2 3.5C2 2.39543 2.89543 1.5 4 1.5H28C29.1046 1.5 30 2.39543 30 3.5V7.5H2V3.5Z" fill="#FF5116"/>
<path d="M22.3055 13.6357V23.5363H20.2461V15.5936H20.1881L17.916 17.0197V15.1924L20.367 13.6357H22.3055Z" fill="black"/>
<path d="M12.7707 23.6713C12.052 23.6713 11.4075 23.5488 10.837 23.3039C10.2698 23.0557 9.82343 22.7109 9.49793 22.2693C9.17564 21.8246 9.00967 21.3186 9 20.7514H11.0739C11.0836 20.9899 11.1625 21.2026 11.3108 21.3895C11.4622 21.5732 11.6653 21.7166 11.9199 21.8198C12.1745 21.9197 12.4597 21.9696 12.7756 21.9696C13.1011 21.9696 13.3927 21.9148 13.6506 21.8052C13.9084 21.6924 14.1082 21.5329 14.25 21.3267C14.395 21.1204 14.4659 20.8867 14.4627 20.6257C14.4659 20.3582 14.3918 20.1197 14.2403 19.9102C14.0889 19.7007 13.8713 19.538 13.5877 19.422C13.3041 19.3059 12.9705 19.2479 12.587 19.2479H11.6685V17.7251H12.587C12.9093 17.7251 13.1961 17.6704 13.4475 17.5608C13.6989 17.4512 13.8939 17.2965 14.0325 17.0967C14.1743 16.8969 14.2452 16.668 14.2452 16.4102C14.2452 16.1588 14.1855 15.9365 14.0663 15.7431C13.9471 15.5497 13.7762 15.4015 13.5539 15.2983C13.3347 15.192 13.0801 15.1388 12.7901 15.1388C12.5 15.1388 12.2325 15.1904 11.9876 15.2935C11.7426 15.3966 11.5477 15.5433 11.4026 15.7334C11.2576 15.9236 11.1802 16.1411 11.1706 16.3861H9.1982C9.20787 15.8285 9.36901 15.3306 9.68163 14.8923C9.99747 14.454 10.4277 14.1123 10.9724 13.8674C11.5203 13.6225 12.1294 13.5 12.7997 13.5C13.4733 13.5 14.0695 13.6225 14.5884 13.8674C15.1105 14.1123 15.515 14.4475 15.8018 14.8729C16.0886 15.2951 16.2304 15.7657 16.2272 16.2845C16.2304 16.6487 16.1531 16.9774 15.9952 17.2707C15.8372 17.564 15.6149 17.8057 15.328 17.9959C15.0444 18.186 14.7173 18.3149 14.3467 18.3826V18.4599C14.8269 18.5212 15.2362 18.6549 15.5746 18.8612C15.913 19.0675 16.1692 19.3333 16.3432 19.6588C16.5173 19.9811 16.6027 20.3485 16.5994 20.7611C16.6027 21.3154 16.4399 21.8149 16.1112 22.2597C15.7857 22.7012 15.3313 23.0477 14.7479 23.299C14.1646 23.5472 13.5055 23.6713 12.7707 23.6713Z" fill="black"/>
</svg>
