<svg width="32" height="32" viewBox="0 0 32 32" fill="none" xmlns="http://www.w3.org/2000/svg">
<path d="M2.5 11.5C2.5 7.35786 5.85786 4 10 4H20.5V19H10C5.85786 19 2.5 15.6421 2.5 11.5Z" fill="#6E17FF"/>
<path d="M20.5 4H22.5V19H20.5V4Z" fill="#FF5116"/>
<path d="M22.5 4L28.0039 0.854937C28.6705 0.47399 29.5 0.955357 29.5 1.72318V21.2768C29.5 22.0446 28.6705 22.526 28.0039 22.1451L22.5 19V4Z" fill="#6E17FF"/>
<path d="M13.5 18H19.5V29C19.5 30.6569 18.1569 32 16.5 32C14.8431 32 13.5 30.6569 13.5 29V18Z" fill="#6E17FF"/>
</svg>
