<svg width="202" height="27" viewBox="0 0 202 27" fill="none" xmlns="http://www.w3.org/2000/svg">
<path d="M69.6963 22.5638C67.974 22.5638 66.4826 22.1962 65.2206 21.4622C63.96 20.7282 62.9855 19.6791 62.2999 18.3148C61.6143 16.9519 61.2715 15.3194 61.2715 13.4174V13.405C61.2715 11.503 61.6143 9.87191 62.2999 8.51315C62.9855 7.15438 63.9586 6.10939 65.2206 5.37818C66.4812 4.64834 67.974 4.28204 69.6963 4.28204C71.1242 4.28204 72.3987 4.55988 73.5169 5.11417C74.6352 5.66984 75.5336 6.43284 76.2109 7.40319C76.8882 8.37492 77.2849 9.48488 77.3983 10.7331L77.4107 10.8561H73.7989L73.7505 10.6474C73.6123 9.99493 73.3621 9.42682 73.0041 8.9458C72.6447 8.46477 72.1872 8.08879 71.6329 7.81925C71.0772 7.54971 70.4331 7.41563 69.6977 7.41563C68.7509 7.41563 67.9298 7.65891 67.2359 8.14408C66.542 8.62926 66.0057 9.31763 65.6256 10.2078C65.2455 11.098 65.0561 12.1582 65.0561 13.3912V13.4036C65.0561 14.6449 65.2455 15.7161 65.6256 16.6173C66.0057 17.52 66.5434 18.2139 67.2415 18.699C67.9395 19.1842 68.7578 19.4275 69.6963 19.4275C70.4068 19.4275 71.0385 19.2976 71.5942 19.0363C72.1499 18.7751 72.6143 18.3977 72.9903 17.9042C73.3662 17.4108 73.6316 16.8122 73.7864 16.1101L73.8113 15.987H77.4232L77.4107 16.1211C77.296 17.3707 76.8979 18.4806 76.2165 19.451C75.535 20.4227 74.6352 21.183 73.5169 21.7345C72.3987 22.286 71.1256 22.5611 69.6963 22.5611V22.5638Z" fill="black"/>
<path d="M78.2246 22.2582V4.59015H81.8005V11.3978H81.8738C82.2166 10.5823 82.7294 9.95471 83.4108 9.51791C84.0923 9.08112 84.923 8.86272 85.9031 8.86272C86.8831 8.86272 87.6779 9.07282 88.3649 9.49303C89.0505 9.91324 89.5785 10.5076 89.9503 11.2748C90.3221 12.0419 90.5074 12.957 90.5074 14.0172V22.2582H86.9204V14.7525C86.9204 13.8389 86.7034 13.1215 86.2721 12.6031C85.8395 12.0848 85.2147 11.8263 84.3992 11.8263C83.8767 11.8263 83.4219 11.9507 83.0335 12.1995C82.6451 12.4483 82.3437 12.7911 82.1267 13.2279C81.9097 13.6647 81.8019 14.1692 81.8019 14.7401V22.2582H78.226H78.2246Z" fill="black"/>
<path d="M95.9991 22.528C95.0439 22.528 94.227 22.3303 93.5497 21.9336C92.8724 21.5383 92.3582 20.9729 92.0071 20.2376C91.656 19.5036 91.4805 18.6259 91.4805 17.6044V9.1311H95.0564V16.8579C95.0564 17.715 95.2582 18.3798 95.6632 18.8539C96.0668 19.3281 96.6695 19.5644 97.4698 19.5644C97.8693 19.5644 98.2314 19.4953 98.5535 19.3557C98.8755 19.2175 99.1506 19.0184 99.3801 18.7613C99.6081 18.5042 99.7837 18.1987 99.9067 17.8435C100.03 17.4883 100.091 17.0985 100.091 16.6741V9.1311H103.666V22.2571H100.091V20.0897H100.005C99.7851 20.5873 99.4879 21.0199 99.1174 21.3876C98.7456 21.7553 98.3005 22.0359 97.7822 22.2322C97.2638 22.4285 96.6695 22.5266 96.0005 22.5266L95.9991 22.528Z" fill="black"/>
<path d="M110.737 22.5279C109.406 22.5279 108.256 22.2501 107.284 21.6958C106.313 21.1401 105.564 20.3509 105.038 19.3266C104.512 18.3023 104.249 17.0887 104.249 15.6843V15.6719C104.249 14.2675 104.514 13.058 105.045 12.0421C105.576 11.0261 106.325 10.2424 107.293 9.69085C108.26 9.13933 109.397 8.86426 110.703 8.86426C111.894 8.86426 112.927 9.0868 113.8 9.53189C114.674 9.97698 115.357 10.5783 115.852 11.3385C116.345 12.0974 116.617 12.9502 116.666 13.8971V13.9828H113.336L113.324 13.8722C113.217 13.2516 112.948 12.7291 112.515 12.3047C112.082 11.8804 111.495 11.6675 110.751 11.6675C110.172 11.6675 109.667 11.8292 109.239 12.1513C108.81 12.4733 108.48 12.935 108.248 13.5349C108.016 14.1348 107.898 14.8508 107.898 15.6843V15.6968C107.898 16.5538 108.014 17.2822 108.248 17.8821C108.48 18.482 108.81 18.9396 109.239 19.2533C109.667 19.5685 110.176 19.7247 110.764 19.7247C111.482 19.7247 112.059 19.5229 112.496 19.1193C112.932 18.7156 113.207 18.1821 113.322 17.5214L113.347 17.4108H116.677V17.484C116.62 18.4392 116.342 19.2962 115.845 20.055C115.347 20.8139 114.663 21.4166 113.794 21.8617C112.924 22.3068 111.905 22.5293 110.739 22.5293L110.737 22.5279Z" fill="black"/>
<path d="M117.259 22.2584V4.59033H120.846V22.2584H117.259ZM120.405 18.4019V14.3864H120.919L125.352 9.13383H129.405L123.343 16.0396H122.547L120.405 18.4033V18.4019ZM125.523 22.2584L121.471 16.4667L123.736 13.7368L129.651 22.2584H125.525H125.523Z" fill="black"/>
<path d="M141.259 22.5638C139.537 22.5638 138.045 22.1962 136.783 21.4622C135.522 20.7282 134.548 19.6791 133.862 18.3148C133.177 16.9519 132.834 15.3194 132.834 13.4174V13.405C132.834 11.503 133.177 9.87191 133.862 8.51315C134.548 7.15438 135.521 6.10939 136.783 5.37818C138.045 4.64834 139.537 4.28204 141.259 4.28204C142.687 4.28204 143.961 4.55988 145.079 5.11417C146.198 5.66984 147.096 6.43284 147.773 7.40319C148.451 8.37492 148.847 9.48488 148.961 10.7331L148.973 10.8561H145.361L145.313 10.6474C145.175 9.99493 144.925 9.42682 144.567 8.9458C144.207 8.46477 143.75 8.08879 143.195 7.81925C142.64 7.54971 141.996 7.41563 141.26 7.41563C140.313 7.41563 139.492 7.65891 138.798 8.14408C138.105 8.62926 137.568 9.31763 137.188 10.2078C136.808 11.098 136.619 12.1582 136.619 13.3912V13.4036C136.619 14.6449 136.808 15.7161 137.188 16.6173C137.568 17.52 138.106 18.2139 138.804 18.699C139.502 19.1842 140.32 19.4275 141.259 19.4275C141.969 19.4275 142.601 19.2976 143.157 19.0363C143.712 18.7751 144.177 18.3977 144.553 17.9042C144.929 17.4108 145.194 16.8122 145.349 16.1101L145.374 15.987H148.986L148.973 16.1211C148.859 17.3707 148.46 18.4806 147.779 19.451C147.098 20.4227 146.198 21.183 145.079 21.7345C143.961 22.286 142.688 22.5611 141.259 22.5611V22.5638Z" fill="black"/>
<path d="M149.789 22.2583V4.59027H153.365V11.3979H153.438C153.781 10.5824 154.294 9.95483 154.975 9.51803C155.657 9.08124 156.487 8.86284 157.468 8.86284C158.448 8.86284 159.242 9.07295 159.929 9.49316C160.615 9.91336 161.143 10.5077 161.515 11.2749C161.887 12.042 162.072 12.9571 162.072 14.0173V22.2583H158.485V14.7527C158.485 13.839 158.268 13.1216 157.837 12.6032C157.404 12.0849 156.779 11.8264 155.964 11.8264C155.441 11.8264 154.986 11.9508 154.598 12.1996C154.21 12.4484 153.908 12.7912 153.691 13.228C153.474 13.6648 153.366 14.1693 153.366 14.7402V22.2583H149.79H149.789Z" fill="black"/>
<path d="M167.564 22.5279C166.608 22.5279 165.791 22.3303 165.114 21.9336C164.437 21.5382 163.923 20.9729 163.572 20.2375C163.22 19.5035 163.045 18.6258 163.045 17.6043V9.13104H166.621V16.8579C166.621 17.7149 166.823 18.3798 167.228 18.8539C167.631 19.328 168.234 19.5644 169.034 19.5644C169.434 19.5644 169.796 19.4952 170.118 19.3556C170.44 19.2174 170.715 19.0184 170.945 18.7613C171.173 18.5042 171.348 18.1987 171.471 17.8434C171.594 17.4882 171.655 17.0984 171.655 16.674V9.13104H175.231V22.257H171.655V20.0896H171.569C171.35 20.5872 171.052 21.0199 170.682 21.3876C170.31 21.7552 169.865 22.0358 169.347 22.2321C168.828 22.4284 168.234 22.5265 167.565 22.5265L167.564 22.5279Z" fill="black"/>
<path d="M182.301 22.5279C180.97 22.5279 179.82 22.2501 178.848 21.6958C177.876 21.1401 177.127 20.3509 176.602 19.3266C176.075 18.3023 175.812 17.0887 175.812 15.6843V15.6719C175.812 14.2675 176.078 13.058 176.609 12.0421C177.139 11.0261 177.889 10.2424 178.856 9.69085C179.824 9.13933 180.96 8.86426 182.266 8.86426C183.458 8.86426 184.49 9.0868 185.364 9.53189C186.237 9.97698 186.92 10.5783 187.415 11.3385C187.909 12.0974 188.181 12.9502 188.229 13.8971V13.9828H184.899L184.887 13.8722C184.781 13.2516 184.511 12.7291 184.078 12.3047C183.646 11.8804 183.058 11.6675 182.315 11.6675C181.735 11.6675 181.231 11.8292 180.802 12.1513C180.374 12.4733 180.044 12.935 179.811 13.5349C179.579 14.1348 179.462 14.8508 179.462 15.6843V15.6968C179.462 16.5538 179.578 17.2822 179.811 17.8821C180.044 18.482 180.374 18.9396 180.802 19.2533C181.231 19.5685 181.74 19.7247 182.327 19.7247C183.046 19.7247 183.622 19.5229 184.059 19.1193C184.496 18.7156 184.771 18.1821 184.886 17.5214L184.911 17.4108H188.24V17.484C188.184 18.4392 187.906 19.2962 187.408 20.055C186.911 20.8139 186.226 21.4166 185.357 21.8617C184.488 22.3068 183.469 22.5293 182.302 22.5293L182.301 22.5279Z" fill="black"/>
<path d="M188.821 22.2582V4.59015H192.408V22.2582H188.821ZM191.969 18.4017V14.3862H192.483L196.916 9.13364H200.969L194.907 16.0394H194.111L191.969 18.4031V18.4017ZM197.087 22.2582L193.034 16.4665L195.3 13.7366L201.215 22.2582H197.089H197.087Z" fill="black"/>
<path d="M13.4462 26.5519C10.8573 26.5519 8.61662 26.0183 6.72017 24.9512C4.82509 23.8841 3.36128 22.3609 2.3315 20.3801C1.30171 18.4007 0.786133 16.0287 0.786133 13.2669V13.249C0.786133 10.4872 1.30171 8.11802 2.3315 6.14415C3.36128 4.17028 4.82509 2.65256 6.72017 1.59098C8.61524 0.529407 10.8573 0 13.4462 0C15.5929 0 17.5059 0.403621 19.1868 1.20948C20.8676 2.01534 22.2167 3.12391 23.2354 4.5352C24.2541 5.94649 24.8485 7.55821 25.0199 9.37312L25.0379 9.55143H19.6097L19.5365 9.24872C19.3277 8.30048 18.9531 7.47666 18.4141 6.77723C17.8736 6.07781 17.1866 5.53181 16.3531 5.14063C15.5182 4.74945 14.5493 4.55317 13.4462 4.55317C12.0225 4.55317 10.7895 4.90565 9.74731 5.61198C8.70509 6.31694 7.89785 7.31631 7.32698 8.60873C6.75611 9.90114 6.47136 11.4424 6.47136 13.2324V13.2504C6.47136 15.0528 6.75611 16.6093 7.32698 17.9183C7.89785 19.2286 8.70647 20.2363 9.75561 20.9413C10.8047 21.6462 12.0336 22.0001 13.4449 22.0001C14.512 22.0001 15.4629 21.8107 16.2965 21.4306C17.13 21.0518 17.8294 20.5031 18.3947 19.7857C18.9587 19.0683 19.3582 18.2002 19.5904 17.1801L19.6277 17.0018H25.0558L25.0379 17.1967C24.8665 19.0103 24.2679 20.6233 23.2437 22.0346C22.2194 23.4459 20.8662 24.5517 19.1868 25.3521C17.5059 26.1524 15.5929 26.5519 13.4462 26.5519Z" fill="#FF5116"/>
<path d="M38.8342 0.00134277C41.4232 0.00134277 43.6638 0.534896 45.5603 1.602C47.4553 2.66911 48.9192 4.19236 49.9489 6.17314C50.9787 8.15254 51.4943 10.5245 51.4943 13.2863V13.3042C51.4943 16.066 50.9787 18.4352 49.9489 20.4091C48.9192 22.3829 47.4553 23.9007 45.5603 24.9622C43.6652 26.0238 41.4232 26.5532 38.8342 26.5532C36.6876 26.5532 34.7745 26.1496 33.0937 25.3437C31.4129 24.5379 30.0638 23.4293 29.045 22.018C28.0263 20.6067 27.4319 18.995 27.2605 17.1801L27.2426 17.0018H32.6707L32.744 17.3045C32.9527 18.2527 33.3273 19.0766 33.8664 19.776C34.4068 20.4754 35.0938 21.0214 35.9273 21.4126C36.7622 21.8038 37.7312 22 38.8342 22C40.2579 22 41.4909 21.6476 42.5331 20.9412C43.5753 20.2363 44.3826 19.2369 44.9535 17.9445C45.5243 16.6521 45.8091 15.1108 45.8091 13.3208V13.3028C45.8091 11.5004 45.5243 9.94395 44.9535 8.63495C44.3826 7.32457 43.574 6.3169 42.5248 5.61194C41.4757 4.90699 40.2469 4.55313 38.8356 4.55313C37.7685 4.55313 36.8175 4.7425 35.984 5.12262C35.1505 5.50136 34.4511 6.05012 33.8857 6.76752C33.3218 7.48491 32.9223 8.35297 32.6901 9.37308L32.6527 9.55139H27.2246L27.2426 9.35649C27.414 7.54296 28.0125 5.92986 29.0368 4.51857C30.061 3.10729 31.4142 2.00148 33.0937 1.20115C34.7745 0.400817 36.6876 0.00134277 38.8342 0.00134277Z" fill="#FF5116"/>
<path d="M32.618 11.6014H19.6621V14.952H32.618V11.6014Z" fill="#FF5116"/>
</svg>
