<svg width="32" height="32" viewBox="0 0 32 32" fill="none" xmlns="http://www.w3.org/2000/svg">
<path d="M15.3526 16.6668C19.0271 16.6668 22.0059 13.6821 22.0059 10.0002C22.0059 6.31826 19.0271 3.3335 15.3526 3.3335C11.678 3.3335 8.69922 6.31826 8.69922 10.0002C8.69922 13.6821 11.678 16.6668 15.3526 16.6668Z" stroke="black" stroke-width="2" stroke-linecap="round" stroke-linejoin="round"/>
<path d="M18.0195 28.667H4.65951C3.92617 28.667 3.32617 28.067 3.32617 27.3337C3.32617 21.4403 8.08617 16.667 13.9662 16.667H16.6328C22.5128 16.667 27.2728 21.4403 27.2728 27.3337C27.2728 28.067 26.6728 28.667 25.9395 28.667H22.0195" stroke="black" stroke-width="2" stroke-linecap="round" stroke-linejoin="round"/>
<path d="M23.3398 6H28.6732" stroke="black" stroke-width="2" stroke-linecap="round" stroke-linejoin="round"/>
<path d="M26.0059 3.3335V8.66683" stroke="black" stroke-width="2" stroke-linecap="round" stroke-linejoin="round"/>
</svg>
